<?xml version="1.0" encoding="UTF-8" standalone="no"?>
<!-- Generated by IcoMoon.io -->

<svg
   xmlns:dc="http://purl.org/dc/elements/1.1/"
   xmlns:cc="http://creativecommons.org/ns#"
   xmlns:rdf="http://www.w3.org/1999/02/22-rdf-syntax-ns#"
   xmlns:svg="http://www.w3.org/2000/svg"
   xmlns="http://www.w3.org/2000/svg"
   xmlns:sodipodi="http://sodipodi.sourceforge.net/DTD/sodipodi-0.dtd"
   xmlns:inkscape="http://www.inkscape.org/namespaces/inkscape"
   version="1.1"
   width="460"
   height="444"
   viewBox="0 0 460 444"
   id="svg5"
   sodipodi:docname="thumbs-up.svg"
   inkscape:version="0.92.0 r">
  <metadata
     id="metadata11">
    <rdf:RDF>
      <cc:Work
         rdf:about="">
        <dc:format>image/svg+xml</dc:format>
        <dc:type
           rdf:resource="http://purl.org/dc/dcmitype/StillImage" />
        <dc:title></dc:title>
      </cc:Work>
    </rdf:RDF>
  </metadata>
  <defs
     id="defs9">
    <filter
       inkscape:label="Button"
       inkscape:menu="Bevels"
       inkscape:menu-tooltip="Soft bevel, slightly depressed middle"
       style="color-interpolation-filters:sRGB;"
       id="filter4536">
      <feGaussianBlur
         stdDeviation="2.3"
         in="SourceAlpha"
         result="result0"
         id="feGaussianBlur4510" />
      <feMorphology
         in="SourceAlpha"
         radius="6.6"
         result="result1"
         id="feMorphology4512" />
      <feGaussianBlur
         stdDeviation="8.9"
         in="result1"
         id="feGaussianBlur4514" />
      <feColorMatrix
         values="1 0 0 0 0 0 1 0 0 0 0 0 1 0 0 0 0 0 0.3 0"
         result="result91"
         id="feColorMatrix4516" />
      <feComposite
         in="result0"
         operator="out"
         result="result2"
         in2="result91"
         id="feComposite4518" />
      <feGaussianBlur
         stdDeviation="1.7"
         result="result4"
         id="feGaussianBlur4520" />
      <feDiffuseLighting
         surfaceScale="10"
         id="feDiffuseLighting4524">
        <feDistantLight
           azimuth="225"
           elevation="45"
           id="feDistantLight4522" />
      </feDiffuseLighting>
      <feBlend
         in2="SourceGraphic"
         mode="multiply"
         id="feBlend4526" />
      <feComposite
         in2="SourceAlpha"
         operator="in"
         result="result3"
         id="feComposite4528" />
      <feSpecularLighting
         in="result4"
         surfaceScale="5"
         specularExponent="17.9"
         id="feSpecularLighting4532">
        <feDistantLight
           azimuth="225"
           elevation="45"
           id="feDistantLight4530" />
      </feSpecularLighting>
      <feComposite
         in2="result3"
         operator="atop"
         id="feComposite4534" />
    </filter>
  </defs>
  <sodipodi:namedview
     pagecolor="#ffffff"
     bordercolor="#666666"
     borderopacity="1"
     objecttolerance="10"
     gridtolerance="10"
     guidetolerance="10"
     inkscape:pageopacity="0"
     inkscape:pageshadow="2"
     inkscape:window-width="1920"
     inkscape:window-height="1017"
     id="namedview7"
     showgrid="false"
     fit-margin-top="30"
     fit-margin-left="30"
     fit-margin-right="30"
     fit-margin-bottom="30"
     inkscape:zoom="0.52678571"
     inkscape:cx="148.08109"
     inkscape:cy="144.61928"
     inkscape:window-x="1920"
     inkscape:window-y="0"
     inkscape:window-maximized="1"
     inkscape:current-layer="svg5" />
  <g
     id="icomoon-ignore"
     transform="translate(30,-2)"
     style="fill:#79298a;fill-opacity:1" />
  <path
     d="m 134,206 v 160 c 0,8.75 -7.25,16 -16,16 H 46 c -8.75,0 -16,-7.25 -16,-16 V 206 c 0,-8.75 7.25,-16 16,-16 h 72 c 8.75,0 16,7.25 16,16 z m 296,0 c 0,13.25 -5.25,27.5 -13.75,37.25 2.75,8 3.75,15.5 3.75,19 0.5,12.5 -3.25,24.25 -10.75,34.25 2.75,9.25 2.75,19.25 0,29.25 -2.5,9.25 -7.25,17.5 -13.5,23.5 1.5,18.75 -2.75,34 -12.25,45.25 -10.75,12.75 -27.25,19.25 -49.25,19.5 H 302 c -35.75,0 -69.5,-11.75 -96.5,-21 -15.75,-5.5 -30.75,-10.75 -39.5,-11 -8.5,-0.25 -16,-7.25 -16,-16 V 205.75 c 0,-8.25 7,-15.25 15.25,-16 9.25,-0.75 33.25,-30.5 44.25,-45 9,-11.5 17.5,-22.25 25.25,-30 C 244.5,105 247.25,90 250.25,75.5 253,60.75 256,45.25 266.75,34.75 c 3,-3 7,-4.75 11.25,-4.75 56,0 56,44.75 56,64 0,20.5 -7.25,35 -14,48 -2.75,5.5 -5.25,8 -7.25,16 H 382 c 26,0 48,22 48,48 z"
     id="path3"
     inkscape:connector-curvature="0"
     style="fill:#79298a;fill-opacity:1;filter:url(#filter4536)"
     sodipodi:nodetypes="sssssssssscccccccsccssccsccssccss" />
</svg>
